<?xml version="1.0" encoding="UTF-8" standalone="no"?>
<svg
   width="35"
   height="35"
   fill="currentColor"
   class="bi bi-arrow-down-right-square"
   viewBox="0 0 16 16"
   version="1.1"
   id="svg4"
   sodipodi:docname="down.svg"
   inkscape:version="1.1.2 (b8e25be833, 2022-02-05)"
   xmlns:inkscape="http://www.inkscape.org/namespaces/inkscape"
   xmlns:sodipodi="http://sodipodi.sourceforge.net/DTD/sodipodi-0.dtd"
   xmlns="http://www.w3.org/2000/svg"
   xmlns:svg="http://www.w3.org/2000/svg">
  <defs
     id="defs8" />
  <sodipodi:namedview
     id="namedview6"
     pagecolor="#ffffff"
     bordercolor="#666666"
     borderopacity="1.0"
     inkscape:pageshadow="2"
     inkscape:pageopacity="0.0"
     inkscape:pagecheckerboard="0"
     showgrid="false"
     inkscape:zoom="11.728572"
     inkscape:cx="32.953715"
     inkscape:cy="26.004872"
     inkscape:window-width="2400"
     inkscape:window-height="1221"
     inkscape:window-x="-2408"
     inkscape:window-y="-8"
     inkscape:window-maximized="1"
     inkscape:current-layer="svg4" />
  <path
     fill-rule="evenodd"
     d="M15 2a1 1 0 0 0-1-1H2a1 1 0 0 0-1 1v12a1 1 0 0 0 1 1h12a1 1 0 0 0 1-1V2zM0 2a2 2 0 0 1 2-2h12a2 2 0 0 1 2 2v12a2 2 0 0 1-2 2H2a2 2 0 0 1-2-2V2zm5.854 3.146a.5.5 0 1 0-.708.708L9.243 9.95H6.475a.5.5 0 1 0 0 1h3.975a.5.5 0 0 0 .5-.5V6.475a.5.5 0 1 0-1 0v2.768L5.854 5.146z"
     id="path2"
     style="fill:#eee8aa;fill-opacity:1" />
  <path
     style="fill:#eee8aa;stroke:#ffffff;stroke-width:1.18104;stroke-linejoin:round"
     d="M 3.4957369,32.58149 C 3.1014112,32.401901 2.5523073,31.826993 2.3790476,31.412323 2.2781045,31.170733 2.2594397,28.999429 2.2594397,17.498163 V 3.8702658 L 2.4802877,3.4270816 C 2.601754,3.1833304 2.8415531,2.8675363 3.0131744,2.725317 3.6645094,2.1855682 2.853771,2.2125269 17.695916,2.2370855 l 13.50993,0.022354 0.341048,0.1843678 c 0.402043,0.2173413 0.813308,0.6353693 1.034913,1.0519294 0.152629,0.2869039 0.159615,0.8196162 0.181107,13.8083463 0.02456,14.842146 0.05152,14.031407 -0.488232,14.682742 -0.142218,0.171622 -0.458013,0.411421 -0.701764,0.532887 L 31.129734,32.74056 17.48326,32.738688 C 4.4657924,32.736901 3.8210645,32.729656 3.4957369,32.58149 Z M 23.473462,23.785878 c 0.531068,-0.323784 0.527756,-0.290622 0.527756,-5.284051 0,-4.993429 0.0033,-4.960267 -0.527756,-5.284051 -0.577611,-0.35216 -1.308911,-0.142385 -1.600022,0.45897 -0.165495,0.341867 -0.174293,0.512526 -0.174293,3.380931 v 3.020891 L 17.201583,15.59019 c -2.47366,-2.468607 -4.581369,-4.530743 -4.683798,-4.582524 -0.275776,-0.139412 -0.77651,-0.114281 -1.060034,0.0532 -0.355416,0.209949 -0.612227,0.776806 -0.539104,1.189957 0.05125,0.289564 0.559772,0.828803 4.628546,4.908129 l 4.570971,4.582826 H 17.02081 c -3.539338,0 -3.538199,-1.7e-4 -3.851116,0.646209 -0.195821,0.404514 -0.174328,0.753588 0.06929,1.125402 0.290754,0.443746 0.223919,0.43814 5.26284,0.441465 4.556254,0.003 4.697417,-0.0018 4.971635,-0.168976 z"
     id="path1066"
     transform="scale(0.45714286)" />
</svg>
